<svg width="28" height="28" viewBox="0 0 28 28" fill="none" xmlns="http://www.w3.org/2000/svg">
<path fill-rule="evenodd" clip-rule="evenodd" d="M23.5489 2.3189C23.5489 3.59959 22.5107 4.6378 21.23 4.6378C19.9493 4.6378 18.9111 3.59959 18.9111 2.3189C18.9111 1.03821 19.9493 0 21.23 0C22.5107 0 23.5489 1.03821 23.5489 2.3189ZM17.1587 3.24214C17.1587 2.97887 17.0001 2.74148 16.7568 2.64089C16.5138 2.54011 16.2337 2.59586 16.0478 2.78176L6.47213 12.3575L6.47212 8.51583C6.47209 8.35394 6.37447 8.20792 6.22493 8.14583C6.07526 8.08388 5.90297 8.11818 5.7885 8.23265L0.617281 13.4039C0.502812 13.5183 0.468515 13.6906 0.530463 13.8403C0.59241 13.99 0.738426 14.0876 0.900464 14.0875L5.42125 14.0875L5.42123 26.5221C5.42122 26.7853 5.57979 27.0227 5.82288 27.1236C6.06625 27.2242 6.34592 27.1686 6.5321 26.9824L15.8569 17.6577L15.8568 26.5223C15.8568 26.7855 16.0154 27.0229 16.2585 27.1238C16.5019 27.2244 16.7815 27.1688 16.9677 26.9827L27.4035 16.5468C27.5258 16.4246 27.5944 16.2591 27.5943 16.0865L27.5943 3.24236C27.5943 2.97909 27.4358 2.7417 27.1924 2.6411C26.9494 2.54033 26.6693 2.59608 26.4834 2.78198L17.1587 12.1067L17.1587 3.24214ZM16.5076 26.5225L16.5075 17.007L16.5078 17.0067L16.5079 26.5222L16.5076 26.5225ZM26.9436 3.24212V3.24252L17.1587 13.0274V13.027L26.9436 3.24212ZM16.5078 13.6783V13.6779L16.5075 13.6782L16.5075 16.0867L16.5078 16.0865L16.5078 13.8227L16.5078 13.6783ZM16.508 3.24191L16.5078 12.7576L16.5073 12.7582L16.5074 3.24248L16.508 3.24191ZM15.8569 16.7374V16.7371L6.07195 26.522V26.5223L15.8569 16.7374ZM6.07165 8.5158V8.51586L0.900498 13.687H0.900432L6.07165 8.5158Z" fill="#3077E3"/>
</svg>
